<?xml version="1.0" encoding="UTF-8"?>
<svg xmlns="http://www.w3.org/2000/svg" xmlns:xlink="http://www.w3.org/1999/xlink" width="600pt" height="600pt" viewBox="0 0 600 600" version="1.1">
<defs>
<clipPath id="clip1">
  <path d="M 250 220 L 350 220 L 350 350 L 250 350 Z M 250 220 "/>
</clipPath>
<clipPath id="clip2">
  <path d="M 250 300 C 250 273.476562 260.535156 248.042969 279.289062 229.289062 C 290.726562 217.851562 309.273438 217.851562 320.710938 229.289062 C 339.464844 248.042969 350 273.476562 350 300 C 350 327.613281 327.613281 350 300 350 C 272.386719 350 250 327.613281 250 300 Z M 250 300 "/>
</clipPath>
<clipPath id="clip3">
  <path d="M 250 222 L 350 222 L 350 350 L 250 350 Z M 250 222 "/>
</clipPath>
<clipPath id="clip4">
  <path d="M 250 300 C 250 273.476562 260.535156 248.042969 279.289062 229.289062 C 290.726562 217.851562 309.273438 217.851562 320.710938 229.289062 C 339.464844 248.042969 350 273.476562 350 300 C 350 327.613281 327.613281 350 300 350 C 272.386719 350 250 327.613281 250 300 Z M 250 300 "/>
</clipPath>
<clipPath id="clip5">
  <path d="M 250 224 L 350 224 L 350 350 L 250 350 Z M 250 224 "/>
</clipPath>
<clipPath id="clip6">
  <path d="M 250 300 C 250 273.476562 260.535156 248.042969 279.289062 229.289062 C 290.726562 217.851562 309.273438 217.851562 320.710938 229.289062 C 339.464844 248.042969 350 273.476562 350 300 C 350 327.613281 327.613281 350 300 350 C 272.386719 350 250 327.613281 250 300 Z M 250 300 "/>
</clipPath>
<clipPath id="clip7">
  <path d="M 250 227 L 350 227 L 350 350 L 250 350 Z M 250 227 "/>
</clipPath>
<clipPath id="clip8">
  <path d="M 250 300 C 250 273.476562 260.535156 248.042969 279.289062 229.289062 C 290.726562 217.851562 309.273438 217.851562 320.710938 229.289062 C 339.464844 248.042969 350 273.476562 350 300 C 350 327.613281 327.613281 350 300 350 C 272.386719 350 250 327.613281 250 300 Z M 250 300 "/>
</clipPath>
<clipPath id="clip9">
  <path d="M 250 231 L 350 231 L 350 350 L 250 350 Z M 250 231 "/>
</clipPath>
<clipPath id="clip10">
  <path d="M 250 300 C 250 273.476562 260.535156 248.042969 279.289062 229.289062 C 290.726562 217.851562 309.273438 217.851562 320.710938 229.289062 C 339.464844 248.042969 350 273.476562 350 300 C 350 327.613281 327.613281 350 300 350 C 272.386719 350 250 327.613281 250 300 Z M 250 300 "/>
</clipPath>
<clipPath id="clip11">
  <path d="M 250 235 L 350 235 L 350 350 L 250 350 Z M 250 235 "/>
</clipPath>
<clipPath id="clip12">
  <path d="M 250 300 C 250 273.476562 260.535156 248.042969 279.289062 229.289062 C 290.726562 217.851562 309.273438 217.851562 320.710938 229.289062 C 339.464844 248.042969 350 273.476562 350 300 C 350 327.613281 327.613281 350 300 350 C 272.386719 350 250 327.613281 250 300 Z M 250 300 "/>
</clipPath>
<clipPath id="clip13">
  <path d="M 250 240 L 350 240 L 350 350 L 250 350 Z M 250 240 "/>
</clipPath>
<clipPath id="clip14">
  <path d="M 250 300 C 250 273.476562 260.535156 248.042969 279.289062 229.289062 C 290.726562 217.851562 309.273438 217.851562 320.710938 229.289062 C 339.464844 248.042969 350 273.476562 350 300 C 350 327.613281 327.613281 350 300 350 C 272.386719 350 250 327.613281 250 300 Z M 250 300 "/>
</clipPath>
<clipPath id="clip15">
  <path d="M 250 245 L 350 245 L 350 350 L 250 350 Z M 250 245 "/>
</clipPath>
<clipPath id="clip16">
  <path d="M 250 300 C 250 273.476562 260.535156 248.042969 279.289062 229.289062 C 290.726562 217.851562 309.273438 217.851562 320.710938 229.289062 C 339.464844 248.042969 350 273.476562 350 300 C 350 327.613281 327.613281 350 300 350 C 272.386719 350 250 327.613281 250 300 Z M 250 300 "/>
</clipPath>
<clipPath id="clip17">
  <path d="M 250 249 L 350 249 L 350 350 L 250 350 Z M 250 249 "/>
</clipPath>
<clipPath id="clip18">
  <path d="M 250 300 C 250 273.476562 260.535156 248.042969 279.289062 229.289062 C 290.726562 217.851562 309.273438 217.851562 320.710938 229.289062 C 339.464844 248.042969 350 273.476562 350 300 C 350 327.613281 327.613281 350 300 350 C 272.386719 350 250 327.613281 250 300 Z M 250 300 "/>
</clipPath>
<clipPath id="clip19">
  <path d="M 253 254 L 348 254 L 348 349 L 253 349 Z M 253 254 "/>
</clipPath>
<clipPath id="clip20">
  <path d="M 250 300 C 250 273.476562 260.535156 248.042969 279.289062 229.289062 C 290.726562 217.851562 309.273438 217.851562 320.710938 229.289062 C 339.464844 248.042969 350 273.476562 350 300 C 350 327.613281 327.613281 350 300 350 C 272.386719 350 250 327.613281 250 300 Z M 250 300 "/>
</clipPath>
<clipPath id="clip21">
  <path d="M 256 258 L 344 258 L 344 345 L 256 345 Z M 256 258 "/>
</clipPath>
<clipPath id="clip22">
  <path d="M 250 300 C 250 273.476562 260.535156 248.042969 279.289062 229.289062 C 290.726562 217.851562 309.273438 217.851562 320.710938 229.289062 C 339.464844 248.042969 350 273.476562 350 300 C 350 327.613281 327.613281 350 300 350 C 272.386719 350 250 327.613281 250 300 Z M 250 300 "/>
</clipPath>
<clipPath id="clip23">
  <path d="M 259 261 L 340 261 L 340 341 L 259 341 Z M 259 261 "/>
</clipPath>
<clipPath id="clip24">
  <path d="M 250 300 C 250 273.476562 260.535156 248.042969 279.289062 229.289062 C 290.726562 217.851562 309.273438 217.851562 320.710938 229.289062 C 339.464844 248.042969 350 273.476562 350 300 C 350 327.613281 327.613281 350 300 350 C 272.386719 350 250 327.613281 250 300 Z M 250 300 "/>
</clipPath>
<clipPath id="clip25">
  <path d="M 263 264 L 336 264 L 336 337 L 263 337 Z M 263 264 "/>
</clipPath>
<clipPath id="clip26">
  <path d="M 250 300 C 250 273.476562 260.535156 248.042969 279.289062 229.289062 C 290.726562 217.851562 309.273438 217.851562 320.710938 229.289062 C 339.464844 248.042969 350 273.476562 350 300 C 350 327.613281 327.613281 350 300 350 C 272.386719 350 250 327.613281 250 300 Z M 250 300 "/>
</clipPath>
<clipPath id="clip27">
  <path d="M 267 267 L 332 267 L 332 333 L 267 333 Z M 267 267 "/>
</clipPath>
<clipPath id="clip28">
  <path d="M 250 300 C 250 273.476562 260.535156 248.042969 279.289062 229.289062 C 290.726562 217.851562 309.273438 217.851562 320.710938 229.289062 C 339.464844 248.042969 350 273.476562 350 300 C 350 327.613281 327.613281 350 300 350 C 272.386719 350 250 327.613281 250 300 Z M 250 300 "/>
</clipPath>
</defs>
<g id="surface165">
<rect x="0" y="0" width="600" height="600" style="fill:rgb(100%,100%,100%);fill-opacity:1;stroke:none;"/>
<path style=" stroke:none;fill-rule:nonzero;fill:rgb(100%,84.313725%,0%);fill-opacity:0.5;" d="M 250 300 C 250 273.476562 260.535156 248.042969 279.289062 229.289062 C 290.726562 217.851562 309.273438 217.851562 320.710938 229.289062 C 339.464844 248.042969 350 273.476562 350 300 C 350 327.613281 327.613281 350 300 350 C 272.386719 350 250 327.613281 250 300 Z M 250 300 "/>
<g clip-path="url(#clip1)" clip-rule="nonzero">
<g clip-path="url(#clip2)" clip-rule="nonzero">
<path style="fill:none;stroke-width:2;stroke-linecap:butt;stroke-linejoin:miter;stroke:rgb(80%,0%,0%);stroke-opacity:0.5;stroke-miterlimit:10;" d="M 374.847656 652.132812 L -11.769531 480 L 32.46875 59.113281 L 446.425781 -28.875 L 658.027344 337.628906 Z M 374.847656 652.132812 "/>
<path style="fill:none;stroke-width:2;stroke-linecap:butt;stroke-linejoin:miter;stroke:rgb(80%,0%,5.333333%);stroke-opacity:0.5;stroke-miterlimit:10;" d="M 337.210938 654.050781 L -25.222656 444.796875 L 61.789062 35.441406 L 478 -8.304688 L 648.21875 374.015625 Z M 337.210938 654.050781 "/>
<path style="fill:none;stroke-width:2;stroke-linecap:butt;stroke-linejoin:miter;stroke:rgb(80%,0%,10.666667%);stroke-opacity:0.5;stroke-miterlimit:10;" d="M 300 652 L -34.773438 408.773438 L 93.097656 15.226562 L 506.902344 15.226562 L 634.773438 408.773438 Z M 300 652 "/>
<path style="fill:none;stroke-width:2;stroke-linecap:butt;stroke-linejoin:miter;stroke:rgb(80%,0%,16%);stroke-opacity:0.5;stroke-miterlimit:10;" d="M 263.625 646.09375 L -40.394531 372.351562 L 126 -1.375 L 532.859375 41.386719 L 617.914062 441.542969 Z M 263.625 646.09375 "/>
<path style="fill:none;stroke-width:2;stroke-linecap:butt;stroke-linejoin:miter;stroke:rgb(80%,0%,21.333333%);stroke-opacity:0.5;stroke-miterlimit:10;" d="M 228.476562 636.484375 L -42.117188 335.957031 L 160.082031 -14.257812 L 555.640625 69.820312 L 597.914062 472 Z M 228.476562 636.484375 "/>
<path style="fill:none;stroke-width:2;stroke-linecap:butt;stroke-linejoin:miter;stroke:rgb(80%,0%,26.666667%);stroke-opacity:0.5;stroke-miterlimit:10;" d="M 194.933594 623.359375 L -40 300 L 194.933594 -23.359375 L 575.066406 100.152344 L 575.066406 499.847656 Z M 194.933594 623.359375 "/>
<path style="fill:none;stroke-width:2;stroke-linecap:butt;stroke-linejoin:miter;stroke:rgb(80%,0%,32%);stroke-opacity:0.5;stroke-miterlimit:10;" d="M 163.335938 606.953125 L -34.160156 264.878906 L 230.140625 -28.65625 L 590.984375 132 L 549.695312 524.828125 Z M 163.335938 606.953125 "/>
<path style="fill:none;stroke-width:2;stroke-linecap:butt;stroke-linejoin:miter;stroke:rgb(80%,0%,37.333333%);stroke-opacity:0.5;stroke-miterlimit:10;" d="M 134 587.519531 L -24.746094 230.972656 L 265.296875 -30.179688 L 603.296875 164.964844 L 522.152344 546.722656 Z M 134 587.519531 "/>
<path style="fill:none;stroke-width:2;stroke-linecap:butt;stroke-linejoin:miter;stroke:rgb(80%,0%,42.666667%);stroke-opacity:0.5;stroke-miterlimit:10;" d="M 107.207031 565.359375 L -11.945312 198.640625 L 300 -28 L 611.945312 198.640625 L 492.792969 565.359375 Z M 107.207031 565.359375 "/>
<path style="fill:none;stroke-width:2;stroke-linecap:butt;stroke-linejoin:miter;stroke:rgb(80%,0%,48%);stroke-opacity:0.5;stroke-miterlimit:10;" d="M 83.203125 540.777344 L 4.011719 168.21875 L 333.867188 -22.226562 L 616.917969 232.636719 L 462 580.59375 Z M 83.203125 540.777344 "/>
<path style="fill:none;stroke-width:2;stroke-linecap:butt;stroke-linejoin:miter;stroke:rgb(80%,0%,53.333333%);stroke-opacity:0.5;stroke-miterlimit:10;" d="M 62.195312 514.121094 L 22.871094 140 L 366.53125 -13.007812 L 618.246094 266.550781 L 430.15625 592.335938 Z M 62.195312 514.121094 "/>
<path style="fill:none;stroke-width:2;stroke-linecap:butt;stroke-linejoin:miter;stroke:rgb(80%,0%,58.666667%);stroke-opacity:0.5;stroke-miterlimit:10;" d="M 44.351562 485.738281 L 44.351562 114.261719 L 397.648438 -0.535156 L 616 300 L 397.648438 600.535156 Z M 44.351562 485.738281 "/>
<path style="fill:none;stroke-width:2;stroke-linecap:butt;stroke-linejoin:miter;stroke:rgb(80%,0%,64%);stroke-opacity:0.5;stroke-miterlimit:10;" d="M 29.800781 456 L 68.140625 91.230469 L 426.902344 14.972656 L 610.289062 332.613281 L 364.867188 605.183594 Z M 29.800781 456 "/>
<path style="fill:none;stroke-width:2;stroke-linecap:butt;stroke-linejoin:miter;stroke:rgb(80%,0%,69.333333%);stroke-opacity:0.5;stroke-miterlimit:10;" d="M 18.628906 425.273438 L 93.90625 71.113281 L 454 33.265625 L 601.269531 364.035156 L 332.195312 606.3125 Z M 18.628906 425.273438 "/>
<path style="fill:none;stroke-width:2;stroke-linecap:butt;stroke-linejoin:miter;stroke:rgb(80%,0%,74.666667%);stroke-opacity:0.5;stroke-miterlimit:10;" d="M 10.878906 393.941406 L 121.3125 54.058594 L 478.6875 54.058594 L 589.121094 393.941406 L 300 604 Z M 10.878906 393.941406 "/>
<path style="fill:none;stroke-width:2;stroke-linecap:butt;stroke-linejoin:miter;stroke:rgb(80%,0%,80%);stroke-opacity:0.5;stroke-miterlimit:10;" d="M 6.554688 362.375 L 150 40.191406 L 500.738281 77.054688 L 574.0625 422.019531 L 268.640625 598.355469 Z M 6.554688 362.375 "/>
<path style="fill:none;stroke-width:2;stroke-linecap:butt;stroke-linejoin:miter;stroke:rgb(74.666667%,0%,80%);stroke-opacity:0.5;stroke-miterlimit:10;" d="M 5.621094 330.941406 L 179.605469 29.589844 L 519.972656 101.9375 L 556.34375 448 L 238.457031 589.53125 Z M 5.621094 330.941406 "/>
<path style="fill:none;stroke-width:2;stroke-linecap:butt;stroke-linejoin:miter;stroke:rgb(69.333333%,0%,80%);stroke-opacity:0.5;stroke-miterlimit:10;" d="M 8 300 L 209.765625 22.292969 L 536.234375 128.367188 L 536.234375 471.632812 L 209.765625 577.707031 Z M 8 300 "/>
<path style="fill:none;stroke-width:2;stroke-linecap:butt;stroke-linejoin:miter;stroke:rgb(64%,0%,80%);stroke-opacity:0.5;stroke-miterlimit:10;" d="M 13.578125 269.894531 L 240.121094 18.292969 L 549.414062 156 L 514.027344 492.710938 L 182.859375 563.101562 Z M 13.578125 269.894531 "/>
<path style="fill:none;stroke-width:2;stroke-linecap:butt;stroke-linejoin:miter;stroke:rgb(58.666667%,0%,80%);stroke-opacity:0.5;stroke-miterlimit:10;" d="M 22.207031 240.953125 L 270.3125 17.554688 L 559.445312 184.488281 L 490.03125 511.054688 L 158 545.953125 Z M 22.207031 240.953125 "/>
<path style="fill:none;stroke-width:2;stroke-linecap:butt;stroke-linejoin:miter;stroke:rgb(53.333333%,0%,80%);stroke-opacity:0.5;stroke-miterlimit:10;" d="M 33.703125 213.476562 L 300 20 L 566.296875 213.476562 L 464.578125 526.523438 L 135.421875 526.523438 Z M 33.703125 213.476562 "/>
<path style="fill:none;stroke-width:2;stroke-linecap:butt;stroke-linejoin:miter;stroke:rgb(48%,0%,80%);stroke-opacity:0.5;stroke-miterlimit:10;" d="M 47.863281 187.742188 L 328.851562 25.511719 L 569.96875 242.617188 L 438 539.023438 L 115.320312 505.109375 Z M 47.863281 187.742188 "/>
<path style="fill:none;stroke-width:2;stroke-linecap:butt;stroke-linejoin:miter;stroke:rgb(42.666667%,0%,80%);stroke-opacity:0.5;stroke-miterlimit:10;" d="M 64.441406 164 L 356.550781 33.945312 L 570.511719 271.566406 L 410.632812 548.484375 L 97.863281 482.003906 Z M 64.441406 164 "/>
<path style="fill:none;stroke-width:2;stroke-linecap:butt;stroke-linejoin:miter;stroke:rgb(37.333333%,0%,80%);stroke-opacity:0.5;stroke-miterlimit:10;" d="M 83.183594 142.472656 L 382.816406 45.117188 L 568 300 L 382.816406 554.882812 L 83.183594 457.527344 Z M 83.183594 142.472656 "/>
<path style="fill:none;stroke-width:2;stroke-linecap:butt;stroke-linejoin:miter;stroke:rgb(32%,0%,80%);stroke-opacity:0.5;stroke-miterlimit:10;" d="M 103.808594 123.347656 L 407.378906 58.824219 L 562.554688 327.59375 L 354.890625 558.230469 L 71.371094 432 Z M 103.808594 123.347656 "/>
<path style="fill:none;stroke-width:2;stroke-linecap:butt;stroke-linejoin:miter;stroke:rgb(26.666667%,0%,80%);stroke-opacity:0.5;stroke-miterlimit:10;" d="M 126.027344 106.78125 L 430 74.832031 L 554.320312 354.058594 L 327.175781 558.574219 L 62.476562 405.75 Z M 126.027344 106.78125 "/>
<path style="fill:none;stroke-width:2;stroke-linecap:butt;stroke-linejoin:miter;stroke:rgb(21.333333%,0%,80%);stroke-opacity:0.5;stroke-miterlimit:10;" d="M 149.527344 92.890625 L 450.472656 92.890625 L 543.46875 379.109375 L 300 556 L 56.53125 379.109375 Z M 149.527344 92.890625 "/>
<path style="fill:none;stroke-width:2;stroke-linecap:butt;stroke-linejoin:miter;stroke:rgb(16%,0%,80%);stroke-opacity:0.5;stroke-miterlimit:10;" d="M 174 81.761719 L 468.621094 112.726562 L 530.214844 402.496094 L 273.660156 550.621094 L 53.507812 352.394531 Z M 174 81.761719 "/>
<path style="fill:none;stroke-width:2;stroke-linecap:butt;stroke-linejoin:miter;stroke:rgb(10.666667%,0%,80%);stroke-opacity:0.5;stroke-miterlimit:10;" d="M 199.128906 73.441406 L 484.300781 134.054688 L 514.773438 424 L 248.4375 542.582031 L 53.359375 325.921875 Z M 199.128906 73.441406 "/>
<path style="fill:none;stroke-width:2;stroke-linecap:butt;stroke-linejoin:miter;stroke:rgb(5.333333%,0%,80%);stroke-opacity:0.5;stroke-miterlimit:10;" d="M 224.601562 67.941406 L 497.398438 156.582031 L 497.398438 443.417969 L 224.601562 532.058594 L 56 300 Z M 224.601562 67.941406 "/>
<path style="fill:none;stroke-width:2;stroke-linecap:butt;stroke-linejoin:miter;stroke:rgb(0%,0%,80%);stroke-opacity:0.5;stroke-miterlimit:10;" d="M 250.101562 65.246094 L 507.847656 180 L 478.355469 460.589844 L 202.382812 519.25 L 61.316406 274.914062 Z M 250.101562 65.246094 "/>
<path style="fill:none;stroke-width:2;stroke-linecap:butt;stroke-linejoin:miter;stroke:rgb(0%,5.333333%,80%);stroke-opacity:0.5;stroke-miterlimit:10;" d="M 275.332031 65.292969 L 515.597656 204.011719 L 457.914062 475.382812 L 182 504.382812 L 69.15625 250.933594 Z M 275.332031 65.292969 "/>
<path style="fill:none;stroke-width:2;stroke-linecap:butt;stroke-linejoin:miter;stroke:rgb(0%,10.666667%,80%);stroke-opacity:0.5;stroke-miterlimit:10;" d="M 300 68 L 520.644531 228.308594 L 436.367188 487.691406 L 163.632812 487.691406 L 79.355469 228.308594 Z M 300 68 "/>
<path style="fill:none;stroke-width:2;stroke-linecap:butt;stroke-linejoin:miter;stroke:rgb(0%,16%,80%);stroke-opacity:0.5;stroke-miterlimit:10;" d="M 323.832031 73.25 L 523.019531 252.597656 L 414 497.453125 L 147.4375 469.4375 L 91.710938 207.265625 Z M 323.832031 73.25 "/>
<path style="fill:none;stroke-width:2;stroke-linecap:butt;stroke-linejoin:miter;stroke:rgb(0%,21.333333%,80%);stroke-opacity:0.5;stroke-miterlimit:10;" d="M 346.570312 80.894531 L 522.773438 276.585938 L 391.109375 504.632812 L 133.535156 449.886719 L 106.011719 188 Z M 346.570312 80.894531 "/>
<path style="fill:none;stroke-width:2;stroke-linecap:butt;stroke-linejoin:miter;stroke:rgb(0%,26.666667%,80%);stroke-opacity:0.5;stroke-miterlimit:10;" d="M 367.984375 90.765625 L 520 300 L 367.984375 509.234375 L 122.015625 429.3125 L 122.015625 170.6875 Z M 367.984375 90.765625 "/>
<path style="fill:none;stroke-width:2;stroke-linecap:butt;stroke-linejoin:miter;stroke:rgb(0%,32%,80%);stroke-opacity:0.5;stroke-miterlimit:10;" d="M 387.855469 102.675781 L 514.816406 322.578125 L 344.910156 511.28125 L 112.9375 408 L 139.480469 155.46875 Z M 387.855469 102.675781 "/>
<path style="fill:none;stroke-width:2;stroke-linecap:butt;stroke-linejoin:miter;stroke:rgb(0%,37.333333%,80%);stroke-opacity:0.5;stroke-miterlimit:10;" d="M 406 116.402344 L 507.367188 344.078125 L 322.160156 510.839844 L 106.328125 386.226562 L 158.144531 142.453125 Z M 406 116.402344 "/>
<path style="fill:none;stroke-width:2;stroke-linecap:butt;stroke-linejoin:miter;stroke:rgb(0%,42.666667%,80%);stroke-opacity:0.5;stroke-miterlimit:10;" d="M 422.257812 131.722656 L 497.820312 364.277344 L 300 508 L 102.179688 364.277344 L 177.742188 131.722656 Z M 422.257812 131.722656 "/>
<path style="fill:none;stroke-width:2;stroke-linecap:butt;stroke-linejoin:miter;stroke:rgb(0%,48%,80%);stroke-opacity:0.5;stroke-miterlimit:10;" d="M 436.503906 148.398438 L 486.363281 382.972656 L 278.675781 502.882812 L 100.457031 342.414062 L 198 123.332031 Z M 436.503906 148.398438 "/>
<path style="fill:none;stroke-width:2;stroke-linecap:butt;stroke-linejoin:miter;stroke:rgb(0%,53.333333%,80%);stroke-opacity:0.5;stroke-miterlimit:10;" d="M 448.628906 166.175781 L 473.207031 400 L 258.417969 495.628906 L 101.09375 320.90625 L 218.652344 117.289062 Z M 448.628906 166.175781 "/>
<path style="fill:none;stroke-width:2;stroke-linecap:butt;stroke-linejoin:miter;stroke:rgb(0%,58.666667%,80%);stroke-opacity:0.5;stroke-miterlimit:10;" d="M 458.566406 184.792969 L 458.566406 415.207031 L 239.433594 486.40625 L 104 300 L 239.433594 113.59375 Z M 458.566406 184.792969 "/>
<path style="fill:none;stroke-width:2;stroke-linecap:butt;stroke-linejoin:miter;stroke:rgb(0%,64%,80%);stroke-opacity:0.5;stroke-miterlimit:10;" d="M 466.277344 204 L 442.683594 428.472656 L 221.90625 475.402344 L 109.050781 279.929688 L 260.082031 112.195312 Z M 466.277344 204 "/>
<path style="fill:none;stroke-width:2;stroke-linecap:butt;stroke-linejoin:miter;stroke:rgb(0%,69.333333%,80%);stroke-opacity:0.5;stroke-miterlimit:10;" d="M 471.746094 223.535156 L 425.796875 439.710938 L 206 462.8125 L 116.109375 260.914062 L 280.347656 113.03125 Z M 471.746094 223.535156 "/>
<path style="fill:none;stroke-width:2;stroke-linecap:butt;stroke-linejoin:miter;stroke:rgb(0%,74.666667%,80%);stroke-opacity:0.5;stroke-miterlimit:10;" d="M 474.996094 243.140625 L 408.152344 448.859375 L 191.847656 448.859375 L 125.003906 243.140625 L 300 116 Z M 474.996094 243.140625 "/>
<path style="fill:none;stroke-width:2;stroke-linecap:butt;stroke-linejoin:miter;stroke:rgb(0%,80%,80%);stroke-opacity:0.5;stroke-miterlimit:10;" d="M 476.066406 262.574219 L 390 455.882812 L 179.554688 433.765625 L 135.5625 226.789062 L 318.816406 120.984375 Z M 476.066406 262.574219 "/>
<path style="fill:none;stroke-width:2;stroke-linecap:butt;stroke-linejoin:miter;stroke:rgb(0%,80%,74.666667%);stroke-opacity:0.5;stroke-miterlimit:10;" d="M 475.035156 281.601562 L 371.585938 460.785156 L 169.207031 417.765625 L 147.578125 212 L 336.59375 127.847656 Z M 475.035156 281.601562 "/>
<path style="fill:none;stroke-width:2;stroke-linecap:butt;stroke-linejoin:miter;stroke:rgb(0%,80%,69.333333%);stroke-opacity:0.5;stroke-miterlimit:10;" d="M 472 300 L 353.152344 463.582031 L 160.847656 401.097656 L 160.847656 198.902344 L 353.152344 136.417969 Z M 472 300 "/>
<path style="fill:none;stroke-width:2;stroke-linecap:butt;stroke-linejoin:miter;stroke:rgb(0%,80%,64%);stroke-opacity:0.5;stroke-miterlimit:10;" d="M 467.078125 317.5625 L 334.929688 464.328125 L 154.507812 384 L 175.152344 187.585938 L 368.332031 146.523438 Z M 467.078125 317.5625 "/>
<path style="fill:none;stroke-width:2;stroke-linecap:butt;stroke-linejoin:miter;stroke:rgb(0%,80%,58.666667%);stroke-opacity:0.5;stroke-miterlimit:10;" d="M 460.417969 334.097656 L 317.144531 463.101562 L 150.179688 366.703125 L 190.261719 178.125 L 382 157.972656 Z M 460.417969 334.097656 "/>
<path style="fill:none;stroke-width:2;stroke-linecap:butt;stroke-linejoin:miter;stroke:rgb(0%,80%,53.333333%);stroke-opacity:0.5;stroke-miterlimit:10;" d="M 452.167969 349.441406 L 300 460 L 147.832031 349.441406 L 205.953125 170.558594 L 394.046875 170.558594 Z M 452.167969 349.441406 "/>
<path style="fill:none;stroke-width:2;stroke-linecap:butt;stroke-linejoin:miter;stroke:rgb(0%,80%,48%);stroke-opacity:0.5;stroke-miterlimit:10;" d="M 442.511719 363.449219 L 283.695312 455.144531 L 147.410156 332.433594 L 222 164.898438 L 404.382812 184.070312 Z M 442.511719 363.449219 "/>
<path style="fill:none;stroke-width:2;stroke-linecap:butt;stroke-linejoin:miter;stroke:rgb(0%,80%,42.666667%);stroke-opacity:0.5;stroke-miterlimit:10;" d="M 431.636719 376 L 268.398438 448.679688 L 148.832031 315.886719 L 238.175781 161.140625 L 412.957031 198.292969 Z M 431.636719 376 "/>
<path style="fill:none;stroke-width:2;stroke-linecap:butt;stroke-linejoin:miter;stroke:rgb(0%,80%,37.333333%);stroke-opacity:0.5;stroke-miterlimit:10;" d="M 419.734375 386.992188 L 254.265625 440.757812 L 152 300 L 254.265625 159.242188 L 419.734375 213.007812 Z M 419.734375 386.992188 "/>
<path style="fill:none;stroke-width:2;stroke-linecap:butt;stroke-linejoin:miter;stroke:rgb(0%,80%,32%);stroke-opacity:0.5;stroke-miterlimit:10;" d="M 407.011719 396.355469 L 241.429688 431.550781 L 156.789062 284.949219 L 270.0625 159.148438 L 424.707031 228 Z M 407.011719 396.355469 "/>
<path style="fill:none;stroke-width:2;stroke-linecap:butt;stroke-linejoin:miter;stroke:rgb(0%,80%,26.666667%);stroke-opacity:0.5;stroke-miterlimit:10;" d="M 393.679688 404.039062 L 230 421.242188 L 163.058594 270.890625 L 285.367188 160.765625 L 427.894531 243.058594 Z M 393.679688 404.039062 "/>
<path style="fill:none;stroke-width:2;stroke-linecap:butt;stroke-linejoin:miter;stroke:rgb(0%,80%,21.333333%);stroke-opacity:0.5;stroke-miterlimit:10;" d="M 379.9375 410.027344 L 220.0625 410.027344 L 170.65625 257.972656 L 300 164 L 429.34375 257.972656 Z M 379.9375 410.027344 "/>
<path style="fill:none;stroke-width:2;stroke-linecap:butt;stroke-linejoin:miter;stroke:rgb(0%,80%,16%);stroke-opacity:0.5;stroke-miterlimit:10;" d="M 366 414.316406 L 211.675781 398.09375 L 179.410156 246.3125 L 313.796875 168.722656 L 429.117188 272.554688 Z M 366 414.316406 "/>
<path style="fill:none;stroke-width:2;stroke-linecap:butt;stroke-linejoin:miter;stroke:rgb(0%,80%,10.666667%);stroke-opacity:0.5;stroke-miterlimit:10;" d="M 352.0625 416.933594 L 204.878906 385.648438 L 189.148438 236 L 326.613281 174.796875 L 427.296875 286.621094 Z M 352.0625 416.933594 "/>
<path style="fill:none;stroke-width:2;stroke-linecap:butt;stroke-linejoin:miter;stroke:rgb(0%,80%,5.333333%);stroke-opacity:0.5;stroke-miterlimit:10;" d="M 338.316406 417.929688 L 199.683594 372.886719 L 199.683594 227.113281 L 338.316406 182.070312 L 424 300 Z M 338.316406 417.929688 "/>
<path style="fill:none;stroke-width:2;stroke-linecap:butt;stroke-linejoin:miter;stroke:rgb(0%,80%,0%);stroke-opacity:0.5;stroke-miterlimit:10;" d="M 324.949219 417.378906 L 196.078125 360 L 210.824219 219.703125 L 348.808594 190.375 L 419.34375 312.542969 Z M 324.949219 417.378906 "/>
<path style="fill:none;stroke-width:2;stroke-linecap:butt;stroke-linejoin:miter;stroke:rgb(5.333333%,80%,0%);stroke-opacity:0.5;stroke-miterlimit:10;" d="M 312.125 415.363281 L 194.027344 347.179688 L 222.378906 213.796875 L 358 199.542969 L 413.464844 324.117188 Z M 312.125 415.363281 "/>
<path style="fill:none;stroke-width:2;stroke-linecap:butt;stroke-linejoin:miter;stroke:rgb(10.666667%,80%,0%);stroke-opacity:0.5;stroke-miterlimit:10;" d="M 300 412 L 193.480469 334.609375 L 234.167969 209.390625 L 365.832031 209.390625 L 406.519531 334.609375 Z M 300 412 "/>
<path style="fill:none;stroke-width:2;stroke-linecap:butt;stroke-linejoin:miter;stroke:rgb(16%,80%,0%);stroke-opacity:0.5;stroke-miterlimit:10;" d="M 288.710938 407.410156 L 194.359375 322.453125 L 246 206.46875 L 372.265625 219.742188 L 398.664062 343.925781 Z M 288.710938 407.410156 "/>
<path style="fill:none;stroke-width:2;stroke-linecap:butt;stroke-linejoin:miter;stroke:rgb(21.333333%,80%,0%);stroke-opacity:0.5;stroke-miterlimit:10;" d="M 278.378906 401.726562 L 196.570312 310.871094 L 257.699219 204.992188 L 377.285156 230.410156 L 390.066406 352 Z M 278.378906 401.726562 "/>
<path style="fill:none;stroke-width:2;stroke-linecap:butt;stroke-linejoin:miter;stroke:rgb(26.666667%,80%,0%);stroke-opacity:0.5;stroke-miterlimit:10;" d="M 269.097656 395.105469 L 200 300 L 269.097656 204.894531 L 380.902344 241.222656 L 380.902344 358.777344 Z M 269.097656 395.105469 "/>
<path style="fill:none;stroke-width:2;stroke-linecap:butt;stroke-linejoin:miter;stroke:rgb(32%,80%,0%);stroke-opacity:0.5;stroke-miterlimit:10;" d="M 260.953125 387.699219 L 204.527344 289.964844 L 280.039062 206.097656 L 383.136719 252 L 371.34375 364.238281 Z M 260.953125 387.699219 "/>
<path style="fill:none;stroke-width:2;stroke-linecap:butt;stroke-linejoin:miter;stroke:rgb(37.333333%,80%,0%);stroke-opacity:0.5;stroke-miterlimit:10;" d="M 254 379.675781 L 210.011719 280.871094 L 290.382812 208.503906 L 384.046875 262.582031 L 361.558594 368.371094 Z M 254 379.675781 "/>
<path style="fill:none;stroke-width:2;stroke-linecap:butt;stroke-linejoin:miter;stroke:rgb(42.666667%,80%,0%);stroke-opacity:0.5;stroke-miterlimit:10;" d="M 248.273438 371.195312 L 216.308594 272.804688 L 300 212 L 383.691406 272.804688 L 351.726562 371.195312 Z M 248.273438 371.195312 "/>
<path style="fill:none;stroke-width:2;stroke-linecap:butt;stroke-linejoin:miter;stroke:rgb(48%,80%,0%);stroke-opacity:0.5;stroke-miterlimit:10;" d="M 243.792969 362.425781 L 223.261719 265.835938 L 308.78125 216.460938 L 382.164062 282.535156 L 342 372.746094 Z M 243.792969 362.425781 "/>
<path style="fill:none;stroke-width:2;stroke-linecap:butt;stroke-linejoin:miter;stroke:rgb(53.333333%,80%,0%);stroke-opacity:0.5;stroke-miterlimit:10;" d="M 240.546875 353.53125 L 230.71875 260 L 316.632812 221.75 L 379.5625 291.636719 L 332.539062 373.082031 Z M 240.546875 353.53125 "/>
<path style="fill:none;stroke-width:2;stroke-linecap:butt;stroke-linejoin:miter;stroke:rgb(58.666667%,80%,0%);stroke-opacity:0.5;stroke-miterlimit:10;" d="M 238.515625 344.671875 L 238.515625 255.328125 L 323.484375 227.71875 L 376 300 L 323.484375 372.28125 Z M 238.515625 344.671875 "/>
<path style="fill:none;stroke-width:2;stroke-linecap:butt;stroke-linejoin:miter;stroke:rgb(64%,80%,0%);stroke-opacity:0.5;stroke-miterlimit:10;" d="M 237.644531 336 L 246.492188 251.824219 L 329.285156 234.226562 L 371.605469 307.527344 L 314.96875 370.425781 Z M 237.644531 336 "/>
<path style="fill:none;stroke-width:2;stroke-linecap:butt;stroke-linejoin:miter;stroke:rgb(69.333333%,80%,0%);stroke-opacity:0.5;stroke-miterlimit:10;" d="M 237.878906 327.65625 L 254.5 249.464844 L 334 241.109375 L 366.515625 314.136719 L 307.109375 367.628906 Z M 237.878906 327.65625 "/>
<path style="fill:none;stroke-width:2;stroke-linecap:butt;stroke-linejoin:miter;stroke:rgb(74.666667%,80%,0%);stroke-opacity:0.5;stroke-miterlimit:10;" d="M 239.132812 319.777344 L 262.382812 248.222656 L 337.617188 248.222656 L 360.867188 319.777344 L 300 364 Z M 239.132812 319.777344 "/>
<path style="fill:none;stroke-width:2;stroke-linecap:butt;stroke-linejoin:miter;stroke:rgb(80%,80%,0%);stroke-opacity:0.5;stroke-miterlimit:10;" d="M 241.3125 312.476562 L 270 248.039062 L 340.148438 255.410156 L 354.8125 324.402344 L 293.726562 359.671875 Z M 241.3125 312.476562 "/>
<path style="fill:none;stroke-width:2;stroke-linecap:butt;stroke-linejoin:miter;stroke:rgb(80%,74.666667%,0%);stroke-opacity:0.5;stroke-miterlimit:10;" d="M 244.308594 305.855469 L 277.222656 248.839844 L 341.617188 262.527344 L 348.496094 328 L 288.355469 354.777344 Z M 244.308594 305.855469 "/>
</g>
</g>
<g clip-path="url(#clip3)" clip-rule="nonzero">
<g clip-path="url(#clip4)" clip-rule="nonzero">
<path style="fill:none;stroke-width:2;stroke-linecap:butt;stroke-linejoin:miter;stroke:rgb(80%,69.333333%,0%);stroke-opacity:0.5;stroke-miterlimit:10;" d="M 248 300 L 283.929688 250.546875 L 342.070312 269.433594 L 342.070312 330.566406 L 283.929688 349.453125 Z M 248 300 "/>
</g>
</g>
<g clip-path="url(#clip5)" clip-rule="nonzero">
<g clip-path="url(#clip6)" clip-rule="nonzero">
<path style="fill:none;stroke-width:2;stroke-linecap:butt;stroke-linejoin:miter;stroke:rgb(80%,64%,0%);stroke-opacity:0.5;stroke-miterlimit:10;" d="M 252.261719 294.984375 L 290.019531 253.050781 L 341.570312 276 L 335.671875 332.117188 L 280.476562 343.851562 Z M 252.261719 294.984375 "/>
</g>
</g>
<g clip-path="url(#clip7)" clip-rule="nonzero">
<g clip-path="url(#clip8)" clip-rule="nonzero">
<path style="fill:none;stroke-width:2;stroke-linecap:butt;stroke-linejoin:miter;stroke:rgb(80%,58.666667%,0%);stroke-opacity:0.5;stroke-miterlimit:10;" d="M 256.960938 290.851562 L 295.402344 256.242188 L 340.195312 282.105469 L 329.441406 332.699219 L 278 338.105469 Z M 256.960938 290.851562 "/>
</g>
</g>
<g clip-path="url(#clip9)" clip-rule="nonzero">
<g clip-path="url(#clip10)" clip-rule="nonzero">
<path style="fill:none;stroke-width:2;stroke-linecap:butt;stroke-linejoin:miter;stroke:rgb(80%,53.333333%,0%);stroke-opacity:0.5;stroke-miterlimit:10;" d="M 261.957031 287.640625 L 300 260 L 338.042969 287.640625 L 323.511719 332.359375 L 276.488281 332.359375 Z M 261.957031 287.640625 "/>
</g>
</g>
<g clip-path="url(#clip11)" clip-rule="nonzero">
<g clip-path="url(#clip12)" clip-rule="nonzero">
<path style="fill:none;stroke-width:2;stroke-linecap:butt;stroke-linejoin:miter;stroke:rgb(80%,48%,0%);stroke-opacity:0.5;stroke-miterlimit:10;" d="M 267.113281 285.359375 L 303.761719 264.195312 L 335.214844 292.515625 L 318 331.175781 L 275.910156 326.753906 Z M 267.113281 285.359375 "/>
</g>
</g>
<g clip-path="url(#clip13)" clip-rule="nonzero">
<g clip-path="url(#clip14)" clip-rule="nonzero">
<path style="fill:none;stroke-width:2;stroke-linecap:butt;stroke-linejoin:miter;stroke:rgb(80%,42.666667%,0%);stroke-opacity:0.5;stroke-miterlimit:10;" d="M 272.289062 284 L 306.652344 268.699219 L 331.824219 296.65625 L 313.015625 329.234375 L 276.21875 321.414062 Z M 272.289062 284 "/>
</g>
</g>
<g clip-path="url(#clip15)" clip-rule="nonzero">
<g clip-path="url(#clip16)" clip-rule="nonzero">
<path style="fill:none;stroke-width:2;stroke-linecap:butt;stroke-linejoin:miter;stroke:rgb(80%,37.333333%,0%);stroke-opacity:0.5;stroke-miterlimit:10;" d="M 277.347656 283.542969 L 308.652344 273.371094 L 328 300 L 308.652344 326.628906 L 277.347656 316.457031 Z M 277.347656 283.542969 "/>
</g>
</g>
<g clip-path="url(#clip17)" clip-rule="nonzero">
<g clip-path="url(#clip18)" clip-rule="nonzero">
<path style="fill:none;stroke-width:2;stroke-linecap:butt;stroke-linejoin:miter;stroke:rgb(80%,32%,0%);stroke-opacity:0.5;stroke-miterlimit:10;" d="M 282.164062 283.941406 L 309.761719 278.074219 L 323.867188 302.507812 L 304.988281 323.476562 L 279.214844 312 Z M 282.164062 283.941406 "/>
</g>
</g>
<g clip-path="url(#clip19)" clip-rule="nonzero">
<g clip-path="url(#clip20)" clip-rule="nonzero">
<path style="fill:none;stroke-width:2;stroke-linecap:butt;stroke-linejoin:miter;stroke:rgb(80%,26.666667%,0%);stroke-opacity:0.5;stroke-miterlimit:10;" d="M 286.617188 285.136719 L 310 282.679688 L 319.5625 304.160156 L 302.089844 319.890625 L 281.730469 308.132812 Z M 286.617188 285.136719 "/>
</g>
</g>
<g clip-path="url(#clip21)" clip-rule="nonzero">
<g clip-path="url(#clip22)" clip-rule="nonzero">
<path style="fill:none;stroke-width:2;stroke-linecap:butt;stroke-linejoin:miter;stroke:rgb(80%,21.333333%,0%);stroke-opacity:0.5;stroke-miterlimit:10;" d="M 290.59375 287.054688 L 309.40625 287.054688 L 315.21875 304.945312 L 300 316 L 284.78125 304.945312 Z M 290.59375 287.054688 "/>
</g>
</g>
<g clip-path="url(#clip23)" clip-rule="nonzero">
<g clip-path="url(#clip24)" clip-rule="nonzero">
<path style="fill:none;stroke-width:2;stroke-linecap:butt;stroke-linejoin:miter;stroke:rgb(80%,16%,0%);stroke-opacity:0.5;stroke-miterlimit:10;" d="M 294 289.609375 L 308.03125 291.082031 L 310.960938 304.878906 L 298.746094 311.933594 L 288.261719 302.496094 Z M 294 289.609375 "/>
</g>
</g>
<g clip-path="url(#clip25)" clip-rule="nonzero">
<g clip-path="url(#clip26)" clip-rule="nonzero">
<path style="fill:none;stroke-width:2;stroke-linecap:butt;stroke-linejoin:miter;stroke:rgb(80%,10.666667%,0%);stroke-opacity:0.5;stroke-miterlimit:10;" d="M 296.746094 292.691406 L 305.945312 294.648438 L 306.929688 304 L 298.335938 307.824219 L 292.042969 300.835938 Z M 296.746094 292.691406 "/>
</g>
</g>
<g clip-path="url(#clip27)" clip-rule="nonzero">
<g clip-path="url(#clip28)" clip-rule="nonzero">
<path style="fill:none;stroke-width:2;stroke-linecap:butt;stroke-linejoin:miter;stroke:rgb(80%,5.333333%,0%);stroke-opacity:0.5;stroke-miterlimit:10;" d="M 298.765625 296.195312 L 303.234375 297.648438 L 303.234375 302.351562 L 298.765625 303.804688 L 296 300 Z M 298.765625 296.195312 "/>
</g>
</g>
<path style="fill:none;stroke-width:2;stroke-linecap:butt;stroke-linejoin:miter;stroke:rgb(100%,0%,0%);stroke-opacity:0.5;stroke-miterlimit:10;" d="M 250 300 C 250 273.476562 260.535156 248.042969 279.289062 229.289062 C 290.726562 217.851562 309.273438 217.851562 320.710938 229.289062 C 339.464844 248.042969 350 273.476562 350 300 C 350 327.613281 327.613281 350 300 350 C 272.386719 350 250 327.613281 250 300 Z M 250 300 "/>
</g>
</svg>
