<?xml version="1.0" encoding="UTF-8"?>
<svg xmlns="http://www.w3.org/2000/svg" xmlns:xlink="http://www.w3.org/1999/xlink" width="600pt" height="600pt" viewBox="0 0 600 600" version="1.1">
<g id="surface155">
<rect x="0" y="0" width="600" height="600" style="fill:rgb(100%,100%,100%);fill-opacity:1;stroke:none;"/>
<path style="fill:none;stroke-width:2;stroke-linecap:butt;stroke-linejoin:miter;stroke:rgb(100%,0%,0%);stroke-opacity:1;stroke-miterlimit:10;" d="M 150 300 L 450 340 "/>
<path style=" stroke:none;fill-rule:nonzero;fill:rgb(46.650456%,48.137859%,95.754806%);fill-opacity:1;" d="M 5 280 C 5 286.667969 -5 286.667969 -5 280 C -5 273.332031 5 273.332031 5 280 "/>
<path style=" stroke:none;fill-rule:nonzero;fill:rgb(61.696516%,82.230253%,75.703723%);fill-opacity:1;" d="M 35 284 C 35 290.667969 25 290.667969 25 284 C 25 277.332031 35 277.332031 35 284 "/>
<path style=" stroke:none;fill-rule:nonzero;fill:rgb(89.37278%,6.386872%,20.483287%);fill-opacity:1;" d="M 65 288 C 65 294.667969 55 294.667969 55 288 C 55 281.332031 65 281.332031 65 288 "/>
<path style=" stroke:none;fill-rule:nonzero;fill:rgb(75.827944%,33.652365%,73.679434%);fill-opacity:1;" d="M 95 292 C 95 298.667969 85 298.667969 85 292 C 85 285.332031 95 285.332031 95 292 "/>
<path style=" stroke:none;fill-rule:nonzero;fill:rgb(18.332567%,32.821078%,77.839955%);fill-opacity:1;" d="M 125 296 C 125 302.667969 115 302.667969 115 296 C 115 289.332031 125 289.332031 125 296 "/>
<path style=" stroke:none;fill-rule:nonzero;fill:rgb(43.669774%,74.196891%,96.604313%);fill-opacity:1;" d="M 155 300 C 155 306.667969 145 306.667969 145 300 C 145 293.332031 155 293.332031 155 300 "/>
<path style=" stroke:none;fill-rule:nonzero;fill:rgb(92.63553%,41.322409%,91.968108%);fill-opacity:1;" d="M 185 304 C 185 310.667969 175 310.667969 175 304 C 175 297.332031 185 297.332031 185 304 "/>
<path style=" stroke:none;fill-rule:nonzero;fill:rgb(39.1926%,24.180173%,58.610149%);fill-opacity:1;" d="M 215 308 C 215 314.667969 205 314.667969 205 308 C 205 301.332031 215 301.332031 215 308 "/>
<path style=" stroke:none;fill-rule:nonzero;fill:rgb(72.700897%,67.614505%,45.609543%);fill-opacity:1;" d="M 245 312 C 245 318.667969 235 318.667969 235 312 C 235 305.332031 245 305.332031 245 312 "/>
<path style=" stroke:none;fill-rule:nonzero;fill:rgb(72.115049%,3.471209%,27.894004%);fill-opacity:1;" d="M 275 316 C 275 322.667969 265 322.667969 265 316 C 265 309.332031 275 309.332031 275 316 "/>
<path style=" stroke:none;fill-rule:nonzero;fill:rgb(31.075439%,56.110641%,17.460689%);fill-opacity:1;" d="M 305 320 C 305 326.667969 295 326.667969 295 320 C 295 313.332031 305 313.332031 305 320 "/>
<path style=" stroke:none;fill-rule:nonzero;fill:rgb(50.88275%,53.509416%,50.579747%);fill-opacity:1;" d="M 335 324 C 335 330.667969 325 330.667969 325 324 C 325 317.332031 335 317.332031 335 324 "/>
<path style=" stroke:none;fill-rule:nonzero;fill:rgb(53.523219%,17.240203%,56.17731%);fill-opacity:1;" d="M 365 328 C 365 334.667969 355 334.667969 355 328 C 355 321.332031 365 321.332031 365 328 "/>
<path style=" stroke:none;fill-rule:nonzero;fill:rgb(46.364159%,37.388062%,95.093256%);fill-opacity:1;" d="M 395 332 C 395 338.667969 385 338.667969 385 332 C 385 325.332031 395 325.332031 395 332 "/>
<path style=" stroke:none;fill-rule:nonzero;fill:rgb(76.735341%,28.382094%,73.96686%);fill-opacity:1;" d="M 425 336 C 425 342.667969 415 342.667969 415 336 C 415 329.332031 425 329.332031 425 336 "/>
<path style=" stroke:none;fill-rule:nonzero;fill:rgb(56.129444%,68.589164%,48.896682%);fill-opacity:1;" d="M 455 340 C 455 346.667969 445 346.667969 445 340 C 445 333.332031 455 333.332031 455 340 "/>
<path style=" stroke:none;fill-rule:nonzero;fill:rgb(59.459052%,97.997319%,5.513239%);fill-opacity:1;" d="M 485 344 C 485 350.667969 475 350.667969 475 344 C 475 337.332031 485 337.332031 485 344 "/>
<path style=" stroke:none;fill-rule:nonzero;fill:rgb(97.009633%,25.910052%,68.77325%);fill-opacity:1;" d="M 515 348 C 515 354.667969 505 354.667969 505 348 C 505 341.332031 515 341.332031 515 348 "/>
<path style=" stroke:none;fill-rule:nonzero;fill:rgb(73.789413%,76.882361%,95.786284%);fill-opacity:1;" d="M 545 352 C 545 358.667969 535 358.667969 535 352 C 535 345.332031 545 345.332031 545 352 "/>
<path style=" stroke:none;fill-rule:nonzero;fill:rgb(70.538721%,66.758402%,35.247995%);fill-opacity:1;" d="M 575 356 C 575 362.667969 565 362.667969 565 356 C 565 349.332031 575 349.332031 575 356 "/>
<path style=" stroke:none;fill-rule:nonzero;fill:rgb(65.232933%,49.951684%,14.961388%);fill-opacity:1;" d="M 605 360 C 605 366.667969 595 366.667969 595 360 C 595 353.332031 605 353.332031 605 360 "/>
</g>
</svg>
